# MagicaVoxel @ Ephtracy

# group
g broom

# material
mtllib broom.mtl
usemtl palette

# normals
vn -1 0 0
vn 1 0 0
vn 0 0 1
vn 0 0 -1
vn 0 -1 0
vn 0 1 0

# texcoords
vt 0.228516 0.5
vt 0.958984 0.5
vt 0.990234 0.5

# verts
v -7 51 -0
v -7 51 -2
v -7 55 -0
v -7 55 -2
v -6 49 -0
v -6 49 -2
v -6 51 -0
v -6 51 -2
v -5 47 -0
v -5 47 -2
v -5 49 -0
v -5 49 -2
v -4 44 -0
v -4 44 -2
v -4 45 -0
v -4 45 -2
v -4 47 -0
v -4 47 -2
v -4 53 -0
v -4 53 -2
v -4 55 -0
v -4 55 -2
v -3 43 -0
v -3 43 -2
v -3 44 -0
v -3 44 -2
v -2 42 -0
v -2 42 -2
v -2 43 -0
v -2 43 -2
v -2 53 -0
v -2 53 -2
v -2 55 -0
v -2 55 -2
v 0 0 -0
v 0 0 -2
v 0 42 -0
v 0 42 -2
v 0 53 -0
v 0 53 -2
v 0 55 -0
v 0 55 -2
v 3 53 -0
v 3 53 -2
v 3 55 -0
v 3 55 -2
v 5 53 -0
v 5 53 -2
v 5 55 -0
v 5 55 -2
v 7 53 -0
v 7 53 -2
v 7 55 -0
v 7 55 -2
v -5 53 -0
v -5 53 -2
v -5 55 -0
v -5 55 -2
v -3 53 -0
v -3 53 -2
v -3 55 -0
v -3 55 -2
v -1 53 -0
v -1 53 -2
v -1 55 -0
v -1 55 -2
v 2 0 -0
v 2 0 -2
v 2 42 -0
v 2 42 -2
v 2 53 -0
v 2 53 -2
v 2 55 -0
v 2 55 -2
v 4 42 -0
v 4 42 -2
v 4 43 -0
v 4 43 -2
v 4 53 -0
v 4 53 -2
v 4 55 -0
v 4 55 -2
v 5 43 -0
v 5 43 -2
v 5 44 -0
v 5 44 -2
v 6 44 -0
v 6 44 -2
v 6 45 -0
v 6 45 -2
v 6 47 -0
v 6 47 -2
v 6 53 -0
v 6 53 -2
v 6 55 -0
v 6 55 -2
v 7 47 -0
v 7 47 -2
v 7 49 -0
v 7 49 -2
v 8 49 -0
v 8 49 -2
v 8 51 -0
v 8 51 -2
v 9 51 -0
v 9 51 -2
v 9 55 -0
v 9 55 -2
v -7 51 -0
v -7 55 -0
v -6 49 -0
v -6 51 -0
v -5 47 -0
v -5 49 -0
v -5 53 -0
v -5 55 -0
v -4 44 -0
v -4 45 -0
v -4 47 -0
v -4 53 -0
v -4 55 -0
v -3 43 -0
v -3 44 -0
v -3 53 -0
v -3 55 -0
v -2 42 -0
v -2 43 -0
v -2 53 -0
v -2 55 -0
v -1 53 -0
v -1 55 -0
v 0 0 -0
v 0 42 -0
v 0 53 -0
v 0 55 -0
v 2 0 -0
v 2 42 -0
v 2 53 -0
v 2 55 -0
v 3 53 -0
v 3 55 -0
v 4 42 -0
v 4 43 -0
v 4 53 -0
v 4 55 -0
v 5 43 -0
v 5 44 -0
v 5 53 -0
v 5 55 -0
v 6 44 -0
v 6 45 -0
v 6 47 -0
v 6 53 -0
v 6 55 -0
v 7 47 -0
v 7 49 -0
v 7 53 -0
v 7 55 -0
v 8 49 -0
v 8 51 -0
v 9 51 -0
v 9 55 -0
v -7 51 -2
v -7 55 -2
v -6 49 -2
v -6 51 -2
v -5 47 -2
v -5 49 -2
v -5 53 -2
v -5 55 -2
v -4 44 -2
v -4 45 -2
v -4 47 -2
v -4 53 -2
v -4 55 -2
v -3 43 -2
v -3 44 -2
v -3 53 -2
v -3 55 -2
v -2 42 -2
v -2 43 -2
v -2 53 -2
v -2 55 -2
v -1 53 -2
v -1 55 -2
v 0 0 -2
v 0 42 -2
v 0 53 -2
v 0 55 -2
v 2 0 -2
v 2 42 -2
v 2 53 -2
v 2 55 -2
v 3 53 -2
v 3 55 -2
v 4 42 -2
v 4 43 -2
v 4 53 -2
v 4 55 -2
v 5 43 -2
v 5 44 -2
v 5 53 -2
v 5 55 -2
v 6 44 -2
v 6 45 -2
v 6 47 -2
v 6 53 -2
v 6 55 -2
v 7 47 -2
v 7 49 -2
v 7 53 -2
v 7 55 -2
v 8 49 -2
v 8 51 -2
v 9 51 -2
v 9 55 -2
v 0 0 -0
v 2 0 -0
v 0 0 -2
v 2 0 -2
v -2 42 -0
v 0 42 -0
v 2 42 -0
v 4 42 -0
v -2 42 -2
v 0 42 -2
v 2 42 -2
v 4 42 -2
v -3 43 -0
v -2 43 -0
v 4 43 -0
v 5 43 -0
v -3 43 -2
v -2 43 -2
v 4 43 -2
v 5 43 -2
v -4 44 -0
v -3 44 -0
v 5 44 -0
v 6 44 -0
v -4 44 -2
v -3 44 -2
v 5 44 -2
v 6 44 -2
v -5 47 -0
v -4 47 -0
v 6 47 -0
v 7 47 -0
v -5 47 -2
v -4 47 -2
v 6 47 -2
v 7 47 -2
v -6 49 -0
v -5 49 -0
v 7 49 -0
v 8 49 -0
v -6 49 -2
v -5 49 -2
v 7 49 -2
v 8 49 -2
v -7 51 -0
v -6 51 -0
v 8 51 -0
v 9 51 -0
v -7 51 -2
v -6 51 -2
v 8 51 -2
v 9 51 -2
v -5 53 -0
v -4 53 -0
v -3 53 -0
v -2 53 -0
v -1 53 -0
v 0 53 -0
v 2 53 -0
v 3 53 -0
v 4 53 -0
v 5 53 -0
v 6 53 -0
v 7 53 -0
v -5 53 -2
v -4 53 -2
v -3 53 -2
v -2 53 -2
v -1 53 -2
v 0 53 -2
v 2 53 -2
v 3 53 -2
v 4 53 -2
v 5 53 -2
v 6 53 -2
v 7 53 -2
v -7 55 -0
v -5 55 -0
v -4 55 -0
v -3 55 -0
v -2 55 -0
v -1 55 -0
v 0 55 -0
v 2 55 -0
v 3 55 -0
v 4 55 -0
v 5 55 -0
v 6 55 -0
v 7 55 -0
v 9 55 -0
v -7 55 -2
v -5 55 -2
v -4 55 -2
v -3 55 -2
v -2 55 -2
v -1 55 -2
v 0 55 -2
v 2 55 -2
v 3 55 -2
v 4 55 -2
v 5 55 -2
v 6 55 -2
v 7 55 -2
v 9 55 -2

# faces
f 3/1/1 2/1/1 1/1/1
f 4/1/1 2/1/1 3/1/1
f 7/1/1 6/1/1 5/1/1
f 8/1/1 6/1/1 7/1/1
f 11/1/1 10/1/1 9/1/1
f 12/1/1 10/1/1 11/1/1
f 15/2/1 14/2/1 13/2/1
f 16/2/1 14/2/1 15/2/1
f 17/1/1 16/1/1 15/1/1
f 18/1/1 16/1/1 17/1/1
f 21/1/1 20/1/1 19/1/1
f 22/1/1 20/1/1 21/1/1
f 25/2/1 24/2/1 23/2/1
f 26/2/1 24/2/1 25/2/1
f 29/2/1 28/2/1 27/2/1
f 30/2/1 28/2/1 29/2/1
f 33/1/1 32/1/1 31/1/1
f 34/1/1 32/1/1 33/1/1
f 37/3/1 36/3/1 35/3/1
f 38/3/1 36/3/1 37/3/1
f 41/1/1 40/1/1 39/1/1
f 42/1/1 40/1/1 41/1/1
f 45/1/1 44/1/1 43/1/1
f 46/1/1 44/1/1 45/1/1
f 49/1/1 48/1/1 47/1/1
f 50/1/1 48/1/1 49/1/1
f 53/1/1 52/1/1 51/1/1
f 54/1/1 52/1/1 53/1/1
f 55/1/2 56/1/2 57/1/2
f 57/1/2 56/1/2 58/1/2
f 59/1/2 60/1/2 61/1/2
f 61/1/2 60/1/2 62/1/2
f 63/1/2 64/1/2 65/1/2
f 65/1/2 64/1/2 66/1/2
f 67/3/2 68/3/2 69/3/2
f 69/3/2 68/3/2 70/3/2
f 71/1/2 72/1/2 73/1/2
f 73/1/2 72/1/2 74/1/2
f 75/2/2 76/2/2 77/2/2
f 77/2/2 76/2/2 78/2/2
f 79/1/2 80/1/2 81/1/2
f 81/1/2 80/1/2 82/1/2
f 83/2/2 84/2/2 85/2/2
f 85/2/2 84/2/2 86/2/2
f 87/2/2 88/2/2 89/2/2
f 89/2/2 88/2/2 90/2/2
f 89/1/2 90/1/2 91/1/2
f 91/1/2 90/1/2 92/1/2
f 93/1/2 94/1/2 95/1/2
f 95/1/2 94/1/2 96/1/2
f 97/1/2 98/1/2 99/1/2
f 99/1/2 98/1/2 100/1/2
f 101/1/2 102/1/2 103/1/2
f 103/1/2 102/1/2 104/1/2
f 105/1/2 106/1/2 107/1/2
f 107/1/2 106/1/2 108/1/2
f 112/1/3 110/1/3 109/1/3
f 114/1/3 112/1/3 111/1/3
f 115/1/3 110/1/3 112/1/3
f 115/1/3 112/1/3 114/1/3
f 116/1/3 110/1/3 115/1/3
f 119/1/3 114/1/3 113/1/3
f 119/1/3 115/1/3 114/1/3
f 120/1/3 115/1/3 119/1/3
f 123/2/3 118/2/3 117/2/3
f 124/1/3 121/1/3 120/1/3
f 124/1/3 119/1/3 118/1/3
f 124/1/3 120/1/3 119/1/3
f 125/1/3 121/1/3 124/1/3
f 127/2/3 123/2/3 122/2/3
f 128/1/3 124/1/3 118/1/3
f 130/1/3 128/1/3 118/1/3
f 130/1/3 129/1/3 128/1/3
f 131/1/3 129/1/3 130/1/3
f 133/2/3 127/2/3 126/2/3
f 134/1/3 130/1/3 118/1/3
f 136/3/3 133/3/3 132/3/3
f 137/2/3 127/2/3 133/2/3
f 137/3/3 133/3/3 136/3/3
f 138/1/3 135/1/3 134/1/3
f 138/1/3 134/1/3 118/1/3
f 139/1/3 135/1/3 138/1/3
f 140/1/3 138/1/3 118/1/3
f 142/2/3 127/2/3 137/2/3
f 143/2/3 123/2/3 127/2/3
f 143/2/3 127/2/3 142/2/3
f 144/1/3 141/1/3 140/1/3
f 144/1/3 140/1/3 118/1/3
f 145/1/3 141/1/3 144/1/3
f 146/2/3 123/2/3 143/2/3
f 147/2/3 118/2/3 123/2/3
f 147/2/3 123/2/3 146/2/3
f 148/1/3 144/1/3 118/1/3
f 150/2/3 118/2/3 147/2/3
f 151/1/3 149/1/3 148/1/3
f 151/2/3 118/2/3 150/2/3
f 151/1/3 148/1/3 118/1/3
f 152/1/3 149/1/3 151/1/3
f 153/1/3 149/1/3 152/1/3
f 154/1/3 149/1/3 153/1/3
f 155/1/3 153/1/3 152/1/3
f 156/1/3 153/1/3 155/1/3
f 157/1/3 153/1/3 156/1/3
f 159/1/3 158/1/3 157/1/3
f 159/1/3 157/1/3 156/1/3
f 160/1/3 158/1/3 159/1/3
f 161/1/3 158/1/3 160/1/3
f 162/1/3 158/1/3 161/1/3
f 163/1/4 164/1/4 166/1/4
f 165/1/4 166/1/4 168/1/4
f 166/1/4 164/1/4 169/1/4
f 168/1/4 166/1/4 169/1/4
f 169/1/4 164/1/4 170/1/4
f 167/1/4 168/1/4 173/1/4
f 168/1/4 169/1/4 173/1/4
f 173/1/4 169/1/4 174/1/4
f 171/2/4 172/2/4 177/2/4
f 174/1/4 175/1/4 178/1/4
f 172/1/4 173/1/4 178/1/4
f 173/1/4 174/1/4 178/1/4
f 178/1/4 175/1/4 179/1/4
f 176/2/4 177/2/4 181/2/4
f 172/1/4 178/1/4 182/1/4
f 172/1/4 182/1/4 184/1/4
f 182/1/4 183/1/4 184/1/4
f 184/1/4 183/1/4 185/1/4
f 180/2/4 181/2/4 187/2/4
f 172/1/4 184/1/4 188/1/4
f 186/3/4 187/3/4 190/3/4
f 187/2/4 181/2/4 191/2/4
f 190/3/4 187/3/4 191/3/4
f 188/1/4 189/1/4 192/1/4
f 172/1/4 188/1/4 192/1/4
f 192/1/4 189/1/4 193/1/4
f 172/1/4 192/1/4 194/1/4
f 191/2/4 181/2/4 196/2/4
f 181/2/4 177/2/4 197/2/4
f 196/2/4 181/2/4 197/2/4
f 194/1/4 195/1/4 198/1/4
f 172/1/4 194/1/4 198/1/4
f 198/1/4 195/1/4 199/1/4
f 197/2/4 177/2/4 200/2/4
f 177/2/4 172/2/4 201/2/4
f 200/2/4 177/2/4 201/2/4
f 172/1/4 198/1/4 202/1/4
f 201/2/4 172/2/4 204/2/4
f 202/1/4 203/1/4 205/1/4
f 204/2/4 172/2/4 205/2/4
f 172/1/4 202/1/4 205/1/4
f 205/1/4 203/1/4 206/1/4
f 206/1/4 203/1/4 207/1/4
f 207/1/4 203/1/4 208/1/4
f 206/1/4 207/1/4 209/1/4
f 209/1/4 207/1/4 210/1/4
f 210/1/4 207/1/4 211/1/4
f 211/1/4 212/1/4 213/1/4
f 210/1/4 211/1/4 213/1/4
f 213/1/4 212/1/4 214/1/4
f 214/1/4 212/1/4 215/1/4
f 215/1/4 212/1/4 216/1/4
f 219/3/5 218/3/5 217/3/5
f 220/3/5 218/3/5 219/3/5
f 225/2/5 222/2/5 221/2/5
f 226/2/5 222/2/5 225/2/5
f 227/2/5 224/2/5 223/2/5
f 228/2/5 224/2/5 227/2/5
f 233/2/5 230/2/5 229/2/5
f 234/2/5 230/2/5 233/2/5
f 235/2/5 232/2/5 231/2/5
f 236/2/5 232/2/5 235/2/5
f 241/2/5 238/2/5 237/2/5
f 242/2/5 238/2/5 241/2/5
f 243/2/5 240/2/5 239/2/5
f 244/2/5 240/2/5 243/2/5
f 249/1/5 246/1/5 245/1/5
f 250/1/5 246/1/5 249/1/5
f 251/1/5 248/1/5 247/1/5
f 252/1/5 248/1/5 251/1/5
f 257/1/5 254/1/5 253/1/5
f 258/1/5 254/1/5 257/1/5
f 259/1/5 256/1/5 255/1/5
f 260/1/5 256/1/5 259/1/5
f 265/1/5 262/1/5 261/1/5
f 266/1/5 262/1/5 265/1/5
f 267/1/5 264/1/5 263/1/5
f 268/1/5 264/1/5 267/1/5
f 269/1/6 270/1/6 281/1/6
f 281/1/6 270/1/6 282/1/6
f 271/1/6 272/1/6 283/1/6
f 283/1/6 272/1/6 284/1/6
f 273/1/6 274/1/6 285/1/6
f 285/1/6 274/1/6 286/1/6
f 275/1/6 276/1/6 287/1/6
f 287/1/6 276/1/6 288/1/6
f 277/1/6 278/1/6 289/1/6
f 289/1/6 278/1/6 290/1/6
f 279/1/6 280/1/6 291/1/6
f 291/1/6 280/1/6 292/1/6
f 293/1/6 294/1/6 307/1/6
f 307/1/6 294/1/6 308/1/6
f 295/1/6 296/1/6 309/1/6
f 309/1/6 296/1/6 310/1/6
f 297/1/6 298/1/6 311/1/6
f 311/1/6 298/1/6 312/1/6
f 299/1/6 300/1/6 313/1/6
f 313/1/6 300/1/6 314/1/6
f 301/1/6 302/1/6 315/1/6
f 315/1/6 302/1/6 316/1/6
f 303/1/6 304/1/6 317/1/6
f 317/1/6 304/1/6 318/1/6
f 305/1/6 306/1/6 319/1/6
f 319/1/6 306/1/6 320/1/6
